<svg width="24" height="24" viewBox="0 0 24 24" fill="none" xmlns="http://www.w3.org/2000/svg">
<path d="M11 20H6C5.73478 20 5.48043 19.8946 5.29289 19.7071C5.10536 19.5196 5 19.2652 5 19V5C5 4.73478 5.10536 4.48043 5.29289 4.29289C5.48043 4.10536 5.73478 4 6 4H11V7C11 7.79565 11.3161 8.55871 11.8787 9.12132C12.4413 9.68393 13.2044 10 14 10H17V12C17 12.2652 17.1054 12.5196 17.2929 12.7071C17.4804 12.8946 17.7348 13 18 13C18.2652 13 18.5196 12.8946 18.7071 12.7071C18.8946 12.5196 19 12.2652 19 12V9C19 9 19 9 19 8.94C18.9896 8.84813 18.9695 8.75763 18.94 8.67V8.58C18.8897 8.4754 18.8258 8.37789 18.75 8.29L12.75 2.29C12.6621 2.21419 12.5646 2.15031 12.46 2.1C12.4302 2.09576 12.3998 2.09576 12.37 2.1L12.06 2H6C5.20435 2 4.44129 2.31607 3.87868 2.87868C3.31607 3.44129 3 4.20435 3 5V19C3 19.7956 3.31607 20.5587 3.87868 21.1213C4.44129 21.6839 5.20435 22 6 22H11C11.2652 22 11.5196 21.8946 11.7071 21.7071C11.8946 21.5196 12 21.2652 12 21C12 20.7348 11.8946 20.4804 11.7071 20.2929C11.5196 20.1054 11.2652 20 11 20ZM13 5.41L15.59 8H14C13.7348 8 13.4804 7.89464 13.2929 7.70711C13.1054 7.51957 13 7.26522 13 7V5.41ZM19 15H13.41L14.71 13.71C14.8983 13.5217 15.0041 13.2663 15.0041 13C15.0041 12.7337 14.8983 12.4783 14.71 12.29C14.5217 12.1017 14.2663 11.9959 14 11.9959C13.7337 11.9959 13.4783 12.1017 13.29 12.29L10.29 15.29C10.2017 15.3872 10.1306 15.4988 10.08 15.62C9.97998 15.8635 9.97998 16.1365 10.08 16.38C10.1258 16.5036 10.1974 16.6161 10.29 16.71L13.29 19.71C13.383 19.8037 13.4936 19.8781 13.6154 19.9289C13.7373 19.9797 13.868 20.0058 14 20.0058C14.132 20.0058 14.2627 19.9797 14.3846 19.9289C14.5064 19.8781 14.617 19.8037 14.71 19.71C14.8037 19.617 14.8781 19.5064 14.9289 19.3846C14.9797 19.2627 15.0058 19.132 15.0058 19C15.0058 18.868 14.9797 18.7373 14.9289 18.6154C14.8781 18.4936 14.8037 18.383 14.71 18.29L13.41 17H19C19.2652 17 19.5196 16.8946 19.7071 16.7071C19.8946 16.5196 20 16.2652 20 16C20 15.7348 19.8946 15.4804 19.7071 15.2929C19.5196 15.1054 19.2652 15 19 15Z" fill="#393D43"/>
</svg>
