<svg width="24" height="24" viewBox="0 0 24 24" fill="none" xmlns="http://www.w3.org/2000/svg">
<path d="M13.4086 11.9991L17.7045 7.71268C17.8926 7.52453 17.9983 7.26935 17.9983 7.00326C17.9983 6.73718 17.8926 6.482 17.7045 6.29385C17.5164 6.1057 17.2612 6 16.9952 6C16.7291 6 16.474 6.1057 16.2859 6.29385L12 10.5903L7.71414 6.29385C7.52602 6.1057 7.27087 6 7.00483 6C6.73878 6 6.48363 6.1057 6.29551 6.29385C6.10739 6.482 6.0017 6.73718 6.0017 7.00326C6.0017 7.26935 6.10739 7.52453 6.29551 7.71268L10.5914 11.9991L6.29551 16.2856C6.20187 16.3785 6.12755 16.489 6.07683 16.6108C6.02611 16.7325 6 16.8631 6 16.995C6 17.1269 6.02611 17.2575 6.07683 17.3793C6.12755 17.501 6.20187 17.6116 6.29551 17.7044C6.38839 17.7981 6.49888 17.8724 6.62062 17.9232C6.74236 17.9739 6.87294 18 7.00483 18C7.13671 18 7.26729 17.9739 7.38903 17.9232C7.51077 17.8724 7.62127 17.7981 7.71414 17.7044L12 13.408L16.2859 17.7044C16.3787 17.7981 16.4892 17.8724 16.611 17.9232C16.7327 17.9739 16.8633 18 16.9952 18C17.1271 18 17.2576 17.9739 17.3794 17.9232C17.5011 17.8724 17.6116 17.7981 17.7045 17.7044C17.7981 17.6116 17.8724 17.501 17.9232 17.3793C17.9739 17.2575 18 17.1269 18 16.995C18 16.8631 17.9739 16.7325 17.9232 16.6108C17.8724 16.489 17.7981 16.3785 17.7045 16.2856L13.4086 11.9991Z" fill="#393D43"/>
</svg>
