<svg width="25" height="25" viewBox="0 0 25 25" fill="none" xmlns="http://www.w3.org/2000/svg">
<path d="M21.2681 5.2229H20.2681V4.2229C20.2681 3.95768 20.1627 3.70333 19.9752 3.51579C19.7876 3.32826 19.5333 3.2229 19.2681 3.2229C19.0028 3.2229 18.7485 3.32826 18.561 3.51579C18.3734 3.70333 18.2681 3.95768 18.2681 4.2229V5.2229H6.26807V4.2229C6.26807 3.95768 6.16271 3.70333 5.97517 3.51579C5.78764 3.32826 5.53328 3.2229 5.26807 3.2229C5.00285 3.2229 4.7485 3.32826 4.56096 3.51579C4.37342 3.70333 4.26807 3.95768 4.26807 4.2229V5.2229H3.26807C3.00285 5.2229 2.7485 5.32826 2.56096 5.51579C2.37342 5.70333 2.26807 5.95768 2.26807 6.2229V12.2229C2.26807 12.4881 2.37342 12.7425 2.56096 12.93C2.7485 13.1175 3.00285 13.2229 3.26807 13.2229H4.26807V20.2229C4.26807 20.4881 4.37342 20.7425 4.56096 20.93C4.7485 21.1175 5.00285 21.2229 5.26807 21.2229C5.53328 21.2229 5.78764 21.1175 5.97517 20.93C6.16271 20.7425 6.26807 20.4881 6.26807 20.2229V13.2229H18.2681V20.2229C18.2681 20.4881 18.3734 20.7425 18.561 20.93C18.7485 21.1175 19.0028 21.2229 19.2681 21.2229C19.5333 21.2229 19.7876 21.1175 19.9752 20.93C20.1627 20.7425 20.2681 20.4881 20.2681 20.2229V13.2229H21.2681C21.5333 13.2229 21.7876 13.1175 21.9752 12.93C22.1627 12.7425 22.2681 12.4881 22.2681 12.2229V6.2229C22.2681 5.95768 22.1627 5.70333 21.9752 5.51579C21.7876 5.32826 21.5333 5.2229 21.2681 5.2229ZM4.26807 9.7429V7.2229H6.78807L4.26807 9.7429ZM5.60807 11.2229L9.60807 7.2229H12.9381L8.93807 11.2229H5.60807ZM11.7581 11.2229L15.7581 7.2229H18.9381L14.9381 11.2229H11.7581ZM20.2681 11.2229H17.7581L20.2681 8.7129V11.2229Z" fill="#393D43"/>
</svg>
