<svg xmlns="http://www.w3.org/2000/svg" width="24" height="24" viewBox="0 0 24 24">
<path fill="#343A40" d="M12,18 C8.69175,18 6,15.30825 6,12 C6,8.69175 8.69175,6 12,6 C15.30825,6 18,8.69175 18,12 C18,15.30825 15.30825,18 12,18 M12,11 L12,11 C11.5628711,11 11.2019262,11.341572 11.1778356,11.7780365 L11.0551109,14.0015198 C11.0263076,14.5233676 11.4259992,14.9697585 11.947847,14.9985618 C11.9652148,14.9995204 11.9826058,15 12,15 L12,15 C12.5226421,15 12.9463273,14.5763148 12.9463273,14.0536727 C12.9463273,14.0362785 12.9458477,14.0188876 12.9448891,14.0015198 L12.8221644,11.7780365 C12.7980738,11.341572 12.4371289,11 12,11 Z M11.996904,10 C12.2982471,10 12.5407628,9.90601187 12.7244582,9.71803279 C12.9081537,9.5300537 13,9.28961895 13,8.99672131 C13,8.70819528 12.9081537,8.4699463 12.7244582,8.28196721 C12.5407628,8.09398813 12.2982471,8 11.996904,8 C11.6996889,8 11.4592372,8.09398813 11.2755418,8.28196721 C11.0918463,8.4699463 11,8.70819528 11,8.99672131 C11,9.28524734 11.0918463,9.52458921 11.2755418,9.7147541 C11.4592372,9.90491898 11.6996889,10 11.996904,10 Z M12,4 C7.5816,4 4,7.5816 4,12 C4,16.4184 7.5816,20 12,20 C16.4184,20 20,16.4184 20,12 C20,7.5816 16.4184,4 12,4"/>
</svg>
