<svg xmlns="http://www.w3.org/2000/svg" width="24" height="24" viewBox="0 0 24 24">
<path fill="#343A40" d="M12,20 C7.5816,20 4,16.4184 4,12 C4,7.5816 7.5816,4 12,4 C16.4184,4 20,7.5816 20,12 C20,16.4184 16.4184,20 12,20 Z M12.0000136,13 C12.4619288,13 12.8433402,12.658428 12.8687967,12.2219635 L12.9984803,8.99848024 C12.9994932,8.98111244 13,8.96372151 13,8.94632727 C13,8.42368515 12.5522908,8 12.0000136,8 C11.9816331,8 11.963256,8.00047958 11.9449034,8.00143819 C11.3934655,8.03024148 10.9711105,8.47663241 11.001547,8.99848024 L11.1312305,12.2219635 C11.1566871,12.658428 11.5380985,13 12.0000136,13 Z M11.996904,14 C11.6996889,14 11.4592372,14.095081 11.2755418,14.2852459 C11.0918463,14.4754108 11,14.7147527 11,15.0032787 C11,15.2918047 11.0918463,15.5300537 11.2755418,15.7180328 C11.4592372,15.9060119 11.6996889,16 11.996904,16 C12.2982471,16 12.5407628,15.9060119 12.7244582,15.7180328 C12.9081537,15.5300537 13,15.2918047 13,15.0032787 C13,14.710381 12.9081537,14.4699463 12.7244582,14.2819672 C12.5407628,14.0939881 12.2982471,14 11.996904,14 Z"/>
</svg>
