<svg width="24" height="24" viewBox="0 0 24 24" fill="none" xmlns="http://www.w3.org/2000/svg">
<path d="M7.33479 11.2279L13.2209 5.30983C13.3175 5.21166 13.4326 5.13373 13.5593 5.08056C13.686 5.02738 13.8219 5 13.9592 5C14.0965 5 14.2324 5.02738 14.3592 5.08056C14.4859 5.13373 14.6009 5.21166 14.6976 5.30983C14.8913 5.50609 15 5.77156 15 6.04829C15 6.32501 14.8913 6.59049 14.6976 6.78674L9.54987 12.024L14.6976 17.2089C14.8913 17.4051 15 17.6706 15 17.9473C15 18.224 14.8913 18.4895 14.6976 18.6858C14.6013 18.7847 14.4864 18.8635 14.3597 18.9174C14.2329 18.9714 14.0968 18.9994 13.9592 19C13.8216 18.9994 13.6855 18.9714 13.5588 18.9174C13.432 18.8635 13.3172 18.7847 13.2209 18.6858L7.33479 12.7677C7.22923 12.6696 7.14499 12.5505 7.08737 12.418C7.02975 12.2855 7 12.1425 7 11.9978C7 11.8531 7.02975 11.7101 7.08737 11.5776C7.14499 11.4451 7.22923 11.326 7.33479 11.2279Z" fill="#393D43"/>
</svg>
