<svg width="24" height="24" viewBox="0 0 24 24" fill="none" xmlns="http://www.w3.org/2000/svg">
<path d="M13.0625 14.1H8.8125C8.53071 14.1 8.26046 14.2106 8.0612 14.4075C7.86194 14.6045 7.75 14.8715 7.75 15.15C7.75 15.4285 7.86194 15.6955 8.0612 15.8925C8.26046 16.0894 8.53071 16.2 8.8125 16.2H13.0625C13.3443 16.2 13.6145 16.0894 13.8138 15.8925C14.0131 15.6955 14.125 15.4285 14.125 15.15C14.125 14.8715 14.0131 14.6045 13.8138 14.4075C13.6145 14.2106 13.3443 14.1 13.0625 14.1ZM17.3125 3.6H16.0588C15.8395 2.98727 15.4339 2.45655 14.8975 2.08059C14.3611 1.70462 13.7201 1.50183 13.0625 1.5H10.9375C10.2799 1.50183 9.63891 1.70462 9.10249 2.08059C8.56607 2.45655 8.16046 2.98727 7.94125 3.6H6.6875C5.84212 3.6 5.03137 3.93187 4.4336 4.52261C3.83583 5.11335 3.5 5.91457 3.5 6.75V19.35C3.5 20.1854 3.83583 20.9866 4.4336 21.5774C5.03137 22.1681 5.84212 22.5 6.6875 22.5H17.3125C18.1579 22.5 18.9686 22.1681 19.5664 21.5774C20.1642 20.9866 20.5 20.1854 20.5 19.35V6.75C20.5 5.91457 20.1642 5.11335 19.5664 4.52261C18.9686 3.93187 18.1579 3.6 17.3125 3.6ZM9.875 4.65C9.875 4.37152 9.98694 4.10445 10.1862 3.90754C10.3855 3.71062 10.6557 3.6 10.9375 3.6H13.0625C13.3443 3.6 13.6145 3.71062 13.8138 3.90754C14.0131 4.10445 14.125 4.37152 14.125 4.65V5.7H9.875V4.65ZM18.375 19.35C18.375 19.6285 18.2631 19.8955 18.0638 20.0925C17.8645 20.2894 17.5943 20.4 17.3125 20.4H6.6875C6.40571 20.4 6.13546 20.2894 5.9362 20.0925C5.73694 19.8955 5.625 19.6285 5.625 19.35V6.75C5.625 6.47152 5.73694 6.20445 5.9362 6.00754C6.13546 5.81062 6.40571 5.7 6.6875 5.7H7.75V6.75C7.75 7.02848 7.86194 7.29555 8.0612 7.49246C8.26046 7.68937 8.53071 7.8 8.8125 7.8H15.1875C15.4693 7.8 15.7395 7.68937 15.9388 7.49246C16.1381 7.29555 16.25 7.02848 16.25 6.75V5.7H17.3125C17.5943 5.7 17.8645 5.81062 18.0638 6.00754C18.2631 6.20445 18.375 6.47152 18.375 6.75V19.35ZM15.1875 9.9H8.8125C8.53071 9.9 8.26046 10.0106 8.0612 10.2075C7.86194 10.4045 7.75 10.6715 7.75 10.95C7.75 11.2285 7.86194 11.4955 8.0612 11.6925C8.26046 11.8894 8.53071 12 8.8125 12H15.1875C15.4693 12 15.7395 11.8894 15.9388 11.6925C16.1381 11.4955 16.25 11.2285 16.25 10.95C16.25 10.6715 16.1381 10.4045 15.9388 10.2075C15.7395 10.0106 15.4693 9.9 15.1875 9.9Z" fill="#393D43"/>
</svg>
