<svg width="24" height="24" viewBox="0 0 24 24" fill="none" xmlns="http://www.w3.org/2000/svg">
<path d="M16.6652 11.2279L10.7791 5.30983C10.6825 5.21166 10.5674 5.13373 10.4407 5.08056C10.314 5.02738 10.1781 5 10.0408 5C9.90348 5 9.76756 5.02738 9.64083 5.08056C9.5141 5.13373 9.39908 5.21166 9.30241 5.30983C9.10872 5.50609 9 5.77156 9 6.04829C9 6.32501 9.10872 6.59049 9.30241 6.78674L14.4501 12.024L9.30241 17.2089C9.10872 17.4051 9 17.6706 9 17.9473C9 18.224 9.10872 18.4895 9.30241 18.6858C9.39872 18.7847 9.51358 18.8635 9.64032 18.9174C9.76707 18.9714 9.90318 18.9994 10.0408 19C10.1784 18.9994 10.3145 18.9714 10.4412 18.9174C10.568 18.8635 10.6828 18.7847 10.7791 18.6858L16.6652 12.7677C16.7708 12.6696 16.855 12.5505 16.9126 12.418C16.9703 12.2855 17 12.1425 17 11.9978C17 11.8531 16.9703 11.7101 16.9126 11.5776C16.855 11.4451 16.7708 11.326 16.6652 11.2279Z" fill="#393D43"/>
</svg>
