<svg width="24" height="24" viewBox="0 0 24 24" fill="none" xmlns="http://www.w3.org/2000/svg">
<path d="M20.219 12.66C20.0587 12.4775 19.9703 12.2429 19.9703 12C19.9703 11.7571 20.0587 11.5225 20.219 11.34L21.4991 9.90002C21.6401 9.74269 21.7277 9.54472 21.7492 9.33452C21.7708 9.12433 21.7252 8.9127 21.619 8.73002L19.619 5.27002C19.514 5.08754 19.3539 4.94289 19.1618 4.8567C18.9697 4.77051 18.7552 4.74718 18.549 4.79002L16.669 5.17002C16.4298 5.21945 16.1808 5.17961 15.9689 5.05802C15.7571 4.93643 15.597 4.7415 15.519 4.51002L14.909 2.68002C14.842 2.4814 14.7142 2.30888 14.5437 2.18686C14.3732 2.06484 14.1687 1.99948 13.959 2.00002H9.95905C9.74098 1.98864 9.52518 2.04894 9.34461 2.17173C9.16404 2.29452 9.02863 2.47304 8.95905 2.68002L8.39905 4.51002C8.32105 4.7415 8.16102 4.93643 7.94916 5.05802C7.7373 5.17961 7.48827 5.21945 7.24905 5.17002L5.31905 4.79002C5.1236 4.7624 4.92435 4.79324 4.7464 4.87866C4.56844 4.96407 4.41975 5.10025 4.31905 5.27002L2.31905 8.73002C2.21021 8.91067 2.16127 9.1211 2.17923 9.33124C2.19719 9.54138 2.28113 9.74046 2.41905 9.90002L3.68905 11.34C3.84937 11.5225 3.93778 11.7571 3.93778 12C3.93778 12.2429 3.84937 12.4775 3.68905 12.66L2.41905 14.1C2.28113 14.2596 2.19719 14.4587 2.17923 14.6688C2.16127 14.8789 2.21021 15.0894 2.31905 15.27L4.31905 18.73C4.42415 18.9125 4.58417 19.0571 4.7763 19.1433C4.96843 19.2295 5.18287 19.2529 5.38905 19.21L7.26905 18.83C7.50827 18.7806 7.7573 18.8204 7.96916 18.942C8.18102 19.0636 8.34105 19.2585 8.41905 19.49L9.02905 21.32C9.09863 21.527 9.23404 21.7055 9.41461 21.8283C9.59518 21.9511 9.81098 22.0114 10.029 22H14.029C14.2387 22.0006 14.4432 21.9352 14.6137 21.8132C14.7842 21.6912 14.912 21.5186 14.979 21.32L15.589 19.49C15.667 19.2585 15.8271 19.0636 16.0389 18.942C16.2508 18.8204 16.4998 18.7806 16.739 18.83L18.619 19.21C18.8252 19.2529 19.0397 19.2295 19.2318 19.1433C19.4239 19.0571 19.584 18.9125 19.6891 18.73L21.6891 15.27C21.7952 15.0873 21.8408 14.8757 21.8192 14.6655C21.7977 14.4553 21.7101 14.2573 21.569 14.1L20.219 12.66ZM18.729 14L19.529 14.9L18.2491 17.12L17.069 16.88C16.3488 16.7328 15.5996 16.8551 14.9636 17.2238C14.3277 17.5925 13.8492 18.1819 13.619 18.88L13.239 20H10.679L10.319 18.86C10.0889 18.1619 9.61043 17.5725 8.97445 17.2038C8.33848 16.8351 7.58927 16.7128 6.86905 16.86L5.68905 17.1L4.38905 14.89L5.18905 13.99C5.681 13.44 5.95298 12.7279 5.95298 11.99C5.95298 11.2521 5.681 10.54 5.18905 9.99002L4.38905 9.09002L5.66905 6.89002L6.84905 7.13002C7.56927 7.27724 8.31848 7.1549 8.95445 6.78622C9.59043 6.41753 10.0689 5.82818 10.299 5.13002L10.679 4.00002H13.239L13.619 5.14002C13.8492 5.83818 14.3277 6.42753 14.9636 6.79622C15.5996 7.1649 16.3488 7.28724 17.069 7.14002L18.2491 6.90002L19.529 9.12002L18.729 10.02C18.2426 10.5688 17.974 11.2767 17.974 12.01C17.974 12.7433 18.2426 13.4513 18.729 14ZM11.959 8.00002C11.1679 8.00002 10.3946 8.23461 9.73677 8.67414C9.07897 9.11366 8.56628 9.73838 8.26353 10.4693C7.96078 11.2002 7.88157 12.0045 8.03591 12.7804C8.19025 13.5563 8.57121 14.269 9.13062 14.8284C9.69003 15.3879 10.4028 15.7688 11.1787 15.9232C11.9546 16.0775 12.7589 15.9983 13.4898 15.6955C14.2207 15.3928 14.8454 14.8801 15.2849 14.2223C15.7245 13.5645 15.959 12.7911 15.959 12C15.959 10.9392 15.5376 9.92174 14.7875 9.17159C14.0373 8.42144 13.0199 8.00002 11.959 8.00002ZM11.959 14C11.5635 14 11.1768 13.8827 10.8479 13.663C10.519 13.4432 10.2627 13.1308 10.1113 12.7654C9.95991 12.3999 9.92031 11.9978 9.99748 11.6098C10.0746 11.2219 10.2651 10.8655 10.5448 10.5858C10.8245 10.3061 11.1809 10.1156 11.5689 10.0384C11.9568 9.96128 12.359 10.0009 12.7244 10.1523C13.0899 10.3036 13.4022 10.56 13.622 10.8889C13.8418 11.2178 13.959 11.6045 13.959 12C13.959 12.5304 13.7483 13.0392 13.3733 13.4142C12.9982 13.7893 12.4895 14 11.959 14Z" fill="#393D43"/>
</svg>
