<svg width="25" height="25" viewBox="0 0 25 25" fill="none" xmlns="http://www.w3.org/2000/svg">
<path d="M22.7145 7.2729L17.1045 1.6129C17.011 1.52022 16.9002 1.44689 16.7784 1.39713C16.6565 1.34736 16.5261 1.32214 16.3945 1.3229C16.1321 1.324 15.8807 1.42816 15.6945 1.6129L1.49447 15.7629C1.30822 15.9503 1.20367 16.2037 1.20367 16.4679C1.20367 16.7321 1.30822 16.9855 1.49447 17.1729L7.15447 22.8329C7.24791 22.9256 7.35872 22.9989 7.48056 23.0487C7.6024 23.0984 7.73286 23.1237 7.86447 23.1229C8.12681 23.1218 8.37821 23.0176 8.56447 22.8329L11.3945 20.0029L19.8845 11.5129L22.7145 8.6829C22.9007 8.49554 23.0053 8.24209 23.0053 7.9779C23.0053 7.71371 22.9007 7.46026 22.7145 7.2729ZM19.1745 9.3929L18.4645 8.6829C18.2771 8.49665 18.0237 8.39211 17.7595 8.39211C17.4953 8.39211 17.2418 8.49665 17.0545 8.6829C16.9607 8.77586 16.8863 8.88646 16.8356 9.00832C16.7848 9.13018 16.7587 9.26089 16.7587 9.3929C16.7587 9.52491 16.7848 9.65562 16.8356 9.77748C16.8863 9.89934 16.9607 10.0099 17.0545 10.1029L17.7645 10.8129L16.3445 12.2229L14.2245 10.1029C14.0332 9.93907 13.7871 9.85347 13.5354 9.86319C13.2837 9.87291 13.045 9.97724 12.8669 10.1553C12.6888 10.3334 12.5845 10.5722 12.5748 10.8238C12.565 11.0755 12.6506 11.3216 12.8145 11.5129L14.9345 13.6329L13.5145 15.0529L12.8145 14.3429C12.6262 14.1546 12.3708 14.0488 12.1045 14.0488C11.8382 14.0488 11.5828 14.1546 11.3945 14.3429C11.2062 14.5312 11.1004 14.7866 11.1004 15.0529C11.1004 15.3192 11.2062 15.5746 11.3945 15.7629L12.1045 16.4629L10.6945 17.8829L8.56447 15.7629C8.3771 15.5766 8.12365 15.4721 7.85947 15.4721C7.59528 15.4721 7.34183 15.5766 7.15447 15.7629C6.96822 15.9503 6.86367 16.2037 6.86367 16.4679C6.86367 16.7321 6.96822 16.9855 7.15447 17.1729L9.27447 19.2929L7.86447 20.7129L3.61447 16.4629L16.3445 3.7329L20.5945 7.9829L19.1745 9.3929Z" fill="#393D43"/>
</svg>
