<svg xmlns="http://www.w3.org/2000/svg" width="24" height="24" viewBox="0 0 24 24">
<path fill="#343A40" d="M12,20 C7.589,20 4,16.411 4,12 C4,7.589 7.589,4 12,4 C16.411,4 20,7.589 20,12 C20,16.411 16.411,20 12,20 Z M14.0815189,9.63707445 L10.6666667,13.0519267 L9.32588851,11.7111485 C8.92090036,11.3061604 8.26428483,11.3061604 7.85929667,11.7111485 C7.45430852,12.1161367 7.45430852,12.7727522 7.85929667,13.1777404 L9.93337075,15.2518144 C10.3383589,15.6568026 10.9949744,15.6568026 11.3999626,15.2518144 L15.5481107,11.1036663 C15.9530989,10.6986781 15.9530989,10.0420626 15.5481107,9.63707445 C15.1431226,9.23208629 14.486507,9.23208629 14.0815189,9.63707445 Z"/>
</svg>
