<svg width="24" height="24" viewBox="0 0 24 24" fill="none" xmlns="http://www.w3.org/2000/svg">
<path d="M7 8.05714H17C17.2652 8.05714 17.5196 7.94878 17.7071 7.75588C17.8946 7.56299 18 7.30137 18 7.02857C18 6.75578 17.8946 6.49416 17.7071 6.30126C17.5196 6.10837 17.2652 6 17 6H7C6.73478 6 6.48043 6.10837 6.29289 6.30126C6.10536 6.49416 6 6.75578 6 7.02857C6 7.30137 6.10536 7.56299 6.29289 7.75588C6.48043 7.94878 6.73478 8.05714 7 8.05714ZM17 15.9429H7C6.73478 15.9429 6.48043 16.0512 6.29289 16.2441C6.10536 16.437 6 16.6986 6 16.9714C6 17.2442 6.10536 17.5058 6.29289 17.6987C6.48043 17.8916 6.73478 18 7 18H17C17.2652 18 17.5196 17.8916 17.7071 17.6987C17.8946 17.5058 18 17.2442 18 16.9714C18 16.6986 17.8946 16.437 17.7071 16.2441C17.5196 16.0512 17.2652 15.9429 17 15.9429ZM17 10.9714H7C6.73478 10.9714 6.48043 11.0798 6.29289 11.2727C6.10536 11.4656 6 11.7272 6 12C6 12.2728 6.10536 12.5344 6.29289 12.7273C6.48043 12.9202 6.73478 13.0286 7 13.0286H17C17.2652 13.0286 17.5196 12.9202 17.7071 12.7273C17.8946 12.5344 18 12.2728 18 12C18 11.7272 17.8946 11.4656 17.7071 11.2727C17.5196 11.0798 17.2652 10.9714 17 10.9714Z" fill="#393D43"/>
</svg>
