<svg width="24" height="24" viewBox="0 0 24 24" fill="none" xmlns="http://www.w3.org/2000/svg">
<path d="M17.4095 10.9166H9.19378L12.7658 7.3554C12.9697 7.15158 13.0842 6.87513 13.0842 6.58687C13.0842 6.29861 12.9697 6.02216 12.7658 5.81834C12.562 5.61451 12.2856 5.5 11.9973 5.5C11.7091 5.5 11.4326 5.61451 11.2288 5.81834L5.81657 11.2305C5.71802 11.3335 5.64077 11.4549 5.58925 11.5877C5.48099 11.8513 5.48099 12.1469 5.58925 12.4104C5.64077 12.5433 5.71802 12.6647 5.81657 12.7676L11.2288 18.1798C11.3294 18.2813 11.4491 18.3618 11.581 18.4168C11.7129 18.4717 11.8544 18.5 11.9973 18.5C12.1402 18.5 12.2817 18.4717 12.4136 18.4168C12.5455 18.3618 12.6652 18.2813 12.7658 18.1798C12.8673 18.0792 12.9478 17.9595 13.0028 17.8276C13.0577 17.6957 13.086 17.5542 13.086 17.4113C13.086 17.2684 13.0577 17.1269 13.0028 16.995C12.9478 16.8631 12.8673 16.7434 12.7658 16.6427L9.19378 13.0815H17.4095C17.6966 13.0815 17.9719 12.9675 18.1749 12.7645C18.3779 12.5615 18.492 12.2862 18.492 11.9991C18.492 11.712 18.3779 11.4367 18.1749 11.2337C17.9719 11.0307 17.6966 10.9166 17.4095 10.9166Z" fill="#393D43"/>
</svg>
