<svg width="24" height="24" viewBox="0 0 24 24" fill="none" xmlns="http://www.w3.org/2000/svg">
<path d="M0 2.18182C0 0.976833 0.976833 0 2.18182 0H21.8182C23.0232 0 24 0.976833 24 2.18182V21.8182C24 23.0232 23.0232 24 21.8182 24H2.18182C0.976833 24 0 23.0232 0 21.8182V2.18182Z" fill="#0066FF"/>
<path d="M18.5396 16.5665C18.5396 17.4703 17.8069 18.2029 16.9032 18.2029C15.9995 18.2029 15.2668 17.4703 15.2668 16.5665C15.2668 15.6628 15.9995 14.9302 16.9032 14.9302C17.8069 14.9302 18.5396 15.6628 18.5396 16.5665Z" fill="white"/>
<path d="M15.3992 5.91806L15.4013 8.22206L12.1024 8.22508L12.1115 18.1393L9.70276 18.1415L9.69371 8.22727L6.41226 8.23027L6.41016 5.92627L15.3992 5.91806Z" fill="white"/>
</svg>
