<?xml version="1.0" encoding="utf-8"?><svg xmlns="http://www.w3.org/2000/svg" xmlns:xlink="http://www.w3.org/1999/xlink"><symbol fill="none" viewBox="0 0 24 24" id="ic24-arrow-left" xmlns="http://www.w3.org/2000/svg"><path d="M17.41 10.917H9.194l3.572-3.562a1.087 1.087 0 10-1.537-1.537L5.817 11.23a1.084 1.084 0 00-.228.358c-.108.263-.108.559 0 .822.052.133.129.255.228.358l5.412 5.412a1.082 1.082 0 001.537 0 1.082 1.082 0 000-1.537L9.194 13.08h8.216a1.082 1.082 0 100-2.164z" fill="#393D43"/></symbol><symbol fill="none" viewBox="0 0 24 24" id="ic24-chart-pie-alt" xmlns="http://www.w3.org/2000/svg"><path d="M19 12h-7V5c0-.6-.4-1-1-1-5 0-9 4-9 9s4 9 9 9 9-4 9-9c0-.6-.4-1-1-1zm-7 7.9c-3.8.6-7.4-2.1-7.9-5.9-.6-3.8 2.1-7.4 5.9-7.9V13c0 .6.4 1 1 1h6.9c-.4 3.1-2.8 5.5-5.9 5.9zM15 2c-.6 0-1 .4-1 1v6c0 .6.4 1 1 1h6c.6 0 1-.4 1-1 0-3.9-3.1-7-7-7zm1 6V4.1c2 .4 3.5 1.9 3.9 3.9H16z" fill="#393D43"/></symbol><symbol fill="none" viewBox="0 0 24 24" id="ic24-check" xmlns="http://www.w3.org/2000/svg"><path d="M19.488 5.371a1.5 1.5 0 01.14 2.117l-7.874 9a1.5 1.5 0 01-2.138.122l-4.125-3.75a1.5 1.5 0 112.018-2.22l2.994 2.722 6.868-7.85a1.5 1.5 0 012.117-.14z" fill="#393D43"/></symbol><symbol fill="none" viewBox="0 0 24 24" id="ic24-chevron-left" xmlns="http://www.w3.org/2000/svg"><path d="M7.335 11.228L13.22 5.31a1.039 1.039 0 011.138-.23 1.051 1.051 0 01.338 1.706L9.55 12.025l5.148 5.185a1.051 1.051 0 010 1.477 1.04 1.04 0 01-.739.314 1.032 1.032 0 01-.738-.314l-5.886-5.918a1.048 1.048 0 01-.248-1.19c.058-.133.142-.252.248-.35z" fill="#393D43"/></symbol><symbol fill="none" viewBox="0 0 24 24" id="ic24-chevron-less-small" xmlns="http://www.w3.org/2000/svg"><path fill-rule="evenodd" clip-rule="evenodd" d="M11.293 8.293a1 1 0 011.414 0l4.5 4.5a1 1 0 01-1.414 1.414L12 10.414l-3.793 3.793a1 1 0 01-1.414-1.414l4.5-4.5z" fill="#393D43"/></symbol><symbol fill="none" viewBox="0 0 24 24" id="ic24-chevron-right" xmlns="http://www.w3.org/2000/svg"><path d="M16.665 11.228L10.78 5.31a1.039 1.039 0 00-1.138-.23 1.051 1.051 0 00-.338 1.706l5.147 5.238-5.148 5.185a1.051 1.051 0 000 1.477 1.04 1.04 0 00.739.314 1.032 1.032 0 00.738-.314l5.886-5.918a1.047 1.047 0 00.335-.77 1.052 1.052 0 00-.335-.77z" fill="#393D43"/></symbol><symbol fill="none" viewBox="0 0 24 24" id="ic24-clipboard-notes" xmlns="http://www.w3.org/2000/svg"><path d="M13.063 14.1h-4.25c-.282 0-.553.11-.752.308a1.044 1.044 0 000 1.485c.2.196.47.307.752.307h4.25c.281 0 .551-.11.75-.307a1.044 1.044 0 000-1.486c-.199-.196-.469-.307-.75-.307zm4.25-10.5h-1.254a3.155 3.155 0 00-1.162-1.52 3.213 3.213 0 00-1.835-.58h-2.124a3.214 3.214 0 00-1.836.58 3.154 3.154 0 00-1.16 1.52H6.686c-.845 0-1.656.332-2.253.923A3.131 3.131 0 003.5 6.75v12.6c0 .835.336 1.637.934 2.227.597.591 1.408.923 2.253.923h10.625c.846 0 1.657-.332 2.254-.923.598-.59.934-1.392.934-2.227V6.75c0-.835-.336-1.637-.934-2.227a3.207 3.207 0 00-2.253-.923zM9.875 4.65c0-.278.112-.546.311-.742.2-.197.47-.308.752-.308h2.124c.282 0 .553.11.752.308.2.196.311.464.311.742V5.7h-4.25V4.65zm8.5 14.7c0 .278-.112.545-.311.742-.2.197-.47.308-.752.308H6.688c-.281 0-.552-.11-.75-.307a1.044 1.044 0 01-.312-.743V6.75c0-.278.112-.546.311-.742.2-.197.47-.308.752-.308H7.75v1.05c0 .278.112.546.311.742.2.197.47.308.752.308h6.374c.282 0 .553-.11.752-.308.2-.196.311-.464.311-.742V5.7h1.063c.281 0 .552.11.75.308.2.196.312.464.312.742v12.6zM15.187 9.9H8.814c-.282 0-.553.11-.752.307a1.044 1.044 0 000 1.486c.2.196.47.307.752.307h6.374c.282 0 .553-.11.752-.307a1.044 1.044 0 000-1.486c-.2-.196-.47-.307-.752-.307z" fill="#393D43"/></symbol><symbol fill="none" viewBox="0 0 24 24" id="ic24-close-delete" xmlns="http://www.w3.org/2000/svg"><path d="M13.409 12l4.295-4.287a1.003 1.003 0 00-1.418-1.42L12 10.59 7.714 6.294a1.003 1.003 0 10-1.418 1.419l4.295 4.286-4.295 4.287a1 1 0 000 1.418 1 1 0 001.418 0L12 13.408l4.286 4.296a.998.998 0 001.418 0 1 1 0 000-1.418l-4.295-4.287z" fill="#393D43"/></symbol><symbol fill="none" viewBox="0 0 24 24" id="ic24-double-chevron-left" xmlns="http://www.w3.org/2000/svg"><path d="M11.46 8.29a1 1 0 00-1.42 0l-3 3a1 1 0 000 1.42l3 3a1.002 1.002 0 001.639-.325 1 1 0 00-.219-1.095L9.16 12l2.3-2.29a1 1 0 000-1.42zm3.2 3.71L17 9.71a1.004 1.004 0 10-1.42-1.42l-3 3a1.002 1.002 0 000 1.42l3 3a1.002 1.002 0 001.639-.325A1 1 0 0017 14.29L14.66 12z" fill="#393D43"/></symbol><symbol fill="none" viewBox="0 0 24 24" id="ic24-drop" xmlns="http://www.w3.org/2000/svg"><path d="M7 8.057h10c.265 0 .52-.108.707-.301.188-.193.293-.455.293-.727 0-.273-.105-.535-.293-.728A.986.986 0 0017 6H7a.986.986 0 00-.707.301A1.044 1.044 0 006 7.03c0 .272.105.534.293.727A.986.986 0 007 8.057zm10 7.886H7a.986.986 0 00-.707.301 1.044 1.044 0 00-.293.727c0 .273.105.535.293.728A.986.986 0 007 18h10c.265 0 .52-.108.707-.301.188-.193.293-.455.293-.728 0-.272-.105-.534-.293-.727a.986.986 0 00-.707-.301zm0-4.972H7a.986.986 0 00-.707.302A1.044 1.044 0 006 12c0 .273.105.534.293.727A.986.986 0 007 13.03h10c.265 0 .52-.109.707-.302.188-.193.293-.454.293-.727 0-.273-.105-.534-.293-.727A.986.986 0 0017 10.97z" fill="#393D43"/></symbol><symbol fill="none" viewBox="0 0 24 24" id="ic24-edit-alt" xmlns="http://www.w3.org/2000/svg"><path d="M5 18h4.24a1 1 0 00.71-.29l6.92-6.93L19.71 8a1 1 0 000-1.42l-4.24-4.29a1 1 0 00-1.42 0l-2.82 2.83-6.94 6.93a1 1 0 00-.29.71V17a1 1 0 001 1zm9.76-13.59l2.83 2.83-1.42 1.42-2.83-2.83 1.42-1.42zM6 13.17l5.93-5.93 2.83 2.83L8.83 16H6v-2.83zM21 20H3a1 1 0 000 2h18a1 1 0 000-2z" fill="#393D43"/></symbol><symbol fill="none" viewBox="0 0 24 24" id="ic24-file" xmlns="http://www.w3.org/2000/svg"><path d="M20 8.94a1.307 1.307 0 00-.06-.27v-.09a1.07 1.07 0 00-.19-.28l-6-6a1.071 1.071 0 00-.28-.19h-.09L13.06 2H7a3 3 0 00-3 3v14a3 3 0 003 3h10a3 3 0 003-3V9v-.06zm-6-3.53L16.59 8H14V5.41zM18 19a1 1 0 01-1 1H7a1 1 0 01-1-1V5a1 1 0 011-1h5v5a1 1 0 001 1h5v9z" fill="#393D43"/></symbol><symbol fill="none" viewBox="0 0 24 24" id="ic24-file-import" xmlns="http://www.w3.org/2000/svg"><path d="M11 20H6a1 1 0 01-1-1V5a1 1 0 011-1h5v3a3 3 0 003 3h3v2a1 1 0 002 0V9v-.06a1.307 1.307 0 00-.06-.27v-.09a1.32 1.32 0 00-.19-.29l-6-6a1.32 1.32 0 00-.29-.19.32.32 0 00-.09 0l-.31-.1H6a3 3 0 00-3 3v14a3 3 0 003 3h5a1 1 0 000-2zm2-14.59L15.59 8H14a1 1 0 01-1-1V5.41zM19 15h-5.59l1.3-1.29a1.004 1.004 0 10-1.42-1.42l-3 3a1.15 1.15 0 00-.21.33 1 1 0 000 .76.93.93 0 00.21.33l3 3a1.002 1.002 0 001.639-.325 1 1 0 00-.219-1.095L13.41 17H19a1 1 0 000-2z" fill="#393D43"/></symbol><symbol viewBox="0 0 24 24" id="ic24-info" xmlns="http://www.w3.org/2000/svg"><path fill="#343A40" d="M12 18c-3.308 0-6-2.692-6-6s2.692-6 6-6 6 2.692 6 6-2.692 6-6 6m0-7a.823.823 0 00-.822.778l-.123 2.224A.946.946 0 0012 15a.946.946 0 00.945-.998l-.123-2.224A.823.823 0 0012 11zm-.003-1c.301 0 .544-.094.727-.282A.989.989 0 0013 8.997a.98.98 0 00-.276-.715c-.183-.188-.426-.282-.727-.282-.297 0-.538.094-.721.282a.98.98 0 00-.276.715c0 .288.092.528.276.718.183.19.424.285.72.285zM12 4a8 8 0 100 16 8 8 0 000-16"/></symbol><symbol fill="none" viewBox="0 0 24 24" id="ic24-plus" xmlns="http://www.w3.org/2000/svg"><path d="M19 11h-6V5a1 1 0 00-2 0v6H5a1 1 0 000 2h6v6a1 1 0 002 0v-6h6a1 1 0 000-2z" fill="#393D43"/></symbol><symbol fill="none" viewBox="0 0 25 25" id="ic24-ruler" xmlns="http://www.w3.org/2000/svg"><path d="M22.715 7.273l-5.61-5.66a1.001 1.001 0 00-1.41 0l-14.2 14.15a1 1 0 000 1.41l5.66 5.66a1 1 0 001.41 0l2.83-2.83 8.49-8.49 2.83-2.83a1 1 0 000-1.41zm-3.54 2.12l-.71-.71a1 1 0 10-1.41 1.42l.71.71-1.42 1.41-2.12-2.12a1 1 0 00-1.41 1.41l2.12 2.12-1.42 1.42-.7-.71a1.004 1.004 0 10-1.42 1.42l.71.7-1.41 1.42-2.13-2.12a1 1 0 00-1.41 0 1 1 0 000 1.41l2.12 2.12-1.41 1.42-4.25-4.25 12.73-12.73 4.25 4.25-1.42 1.41z" fill="#393D43"/></symbol><symbol fill="none" viewBox="0 0 24 24" id="ic24-search" xmlns="http://www.w3.org/2000/svg"><path d="M21.71 20.29L18 16.61A9 9 0 1016.61 18l3.68 3.68a.999.999 0 001.42 0 1 1 0 000-1.39zM11 18a7 7 0 110-14 7 7 0 010 14z" fill="#393D43"/></symbol><symbol fill="none" viewBox="0 0 24 24" id="ic24-search-minus" xmlns="http://www.w3.org/2000/svg"><path d="M21.71 20.29L18 16.61A9 9 0 1016.61 18l3.68 3.68a.999.999 0 001.42 0 1 1 0 000-1.39zM11 18a7 7 0 110-14 7 7 0 010 14zm4-8H7a1 1 0 000 2h8a1 1 0 100-2z" fill="#393D43"/></symbol><symbol fill="none" viewBox="0 0 24 24" id="ic24-search-plus" xmlns="http://www.w3.org/2000/svg"><path d="M15 10h-3V7a1 1 0 10-2 0v3H7a1 1 0 000 2h3v3a1 1 0 002 0v-3h3a1 1 0 100-2zm6.71 10.29L18 16.61A9 9 0 1016.61 18l3.68 3.68a.999.999 0 001.42 0 1 1 0 000-1.39zM11 18a7 7 0 110-14 7 7 0 010 14z" fill="#393D43"/></symbol><symbol fill="none" viewBox="0 0 24 24" id="ic24-setting" xmlns="http://www.w3.org/2000/svg"><path d="M20.219 12.66a1 1 0 010-1.32l1.28-1.44a1 1 0 00.12-1.17l-2-3.46a1 1 0 00-1.07-.48l-1.88.38a1 1 0 01-1.15-.66l-.61-1.83a1 1 0 00-.95-.68h-4a1 1 0 00-1 .68l-.56 1.83a1 1 0 01-1.15.66l-1.93-.38a1 1 0 00-1 .48l-2 3.46a1 1 0 00.1 1.17l1.27 1.44a1 1 0 010 1.32l-1.27 1.44a1 1 0 00-.1 1.17l2 3.46a1 1 0 001.07.48l1.88-.38a1 1 0 011.15.66l.61 1.83a1 1 0 001 .68h4a1 1 0 00.95-.68l.61-1.83a1 1 0 011.15-.66l1.88.38a1 1 0 001.07-.48l2-3.46a1 1 0 00-.12-1.17l-1.35-1.44zM18.729 14l.8.9-1.28 2.22-1.18-.24a3 3 0 00-3.45 2l-.38 1.12h-2.56l-.36-1.14a3 3 0 00-3.45-2l-1.18.24-1.3-2.21.8-.9a3 3 0 000-4l-.8-.9 1.28-2.2 1.18.24a3 3 0 003.45-2l.38-1.13h2.56l.38 1.14a3 3 0 003.45 2l1.18-.24 1.28 2.22-.8.9a3 3 0 000 3.98zm-6.77-6a4 4 0 100 8 4 4 0 000-8zm0 6a2 2 0 110-4 2 2 0 010 4z" fill="#393D43"/></symbol><symbol fill="none" viewBox="0 0 24 24" id="ic24-signin" xmlns="http://www.w3.org/2000/svg"><path d="M20 12a1 1 0 00-1-1h-7.59l2.3-2.29A1.005 1.005 0 0013 6.996a1.004 1.004 0 00-.71.294l-4 4a1 1 0 00-.21.33 1 1 0 000 .76 1 1 0 00.21.33l4 4a1.002 1.002 0 001.639-.325 1 1 0 00-.219-1.095L11.41 13H19a1 1 0 001-1zM17 2H7a3 3 0 00-3 3v14a3 3 0 003 3h10a3 3 0 003-3v-3a1 1 0 00-2 0v3a1 1 0 01-1 1H7a1 1 0 01-1-1V5a1 1 0 011-1h10a1 1 0 011 1v3a1 1 0 002 0V5a3 3 0 00-3-3z" fill="#393D43"/></symbol><symbol fill="none" viewBox="0 0 24 24" id="ic24-sliders" xmlns="http://www.w3.org/2000/svg"><path d="M7 6H6V3a1 1 0 00-2 0v3H3a1 1 0 000 2h4a1 1 0 000-2zm-2 4a1 1 0 00-1 1v10a1 1 0 102 0V11a1 1 0 00-1-1zm7 8a1 1 0 00-1 1v2a1 1 0 002 0v-2a1 1 0 00-1-1zm9-8h-1V3a1 1 0 00-2 0v7h-1a1 1 0 000 2h4a1 1 0 000-2zm-2 4a1 1 0 00-1 1v6a1 1 0 002 0v-6a1 1 0 00-1-1zm-5 0h-1V3a1 1 0 00-2 0v11h-1a1 1 0 000 2h4a1 1 0 000-2z" fill="#393D43"/></symbol><symbol fill="none" viewBox="0 0 24 24" id="ic24-sort" xmlns="http://www.w3.org/2000/svg"><path d="M16.29 14.29L12 18.59l-4.29-4.3a1.004 1.004 0 10-1.42 1.42l5 5a1.002 1.002 0 001.42 0l5-5a1.004 1.004 0 00-1.42-1.42zM7.71 9.71L12 5.41l4.29 4.3a1 1 0 001.639-.325 1 1 0 00-.219-1.095l-5-5a1 1 0 00-1.42 0l-5 5a1.004 1.004 0 001.42 1.42z" fill="#000"/></symbol><symbol viewBox="0 0 24 24" id="ic24-success" xmlns="http://www.w3.org/2000/svg"><path fill="#343A40" d="M12 20c-4.411 0-8-3.589-8-8s3.589-8 8-8 8 3.589 8 8-3.589 8-8 8zm2.082-10.363l-3.415 3.415-1.341-1.34a1.037 1.037 0 00-1.467 1.466l2.074 2.074a1.037 1.037 0 001.467 0l4.148-4.148a1.037 1.037 0 10-1.466-1.467z"/></symbol><symbol fill="none" viewBox="0 0 25 25" id="ic24-traffic-barrier" xmlns="http://www.w3.org/2000/svg"><path d="M21.268 5.223h-1v-1a1 1 0 00-2 0v1h-12v-1a1 1 0 00-2 0v1h-1a1 1 0 00-1 1v6a1 1 0 001 1h1v7a1 1 0 102 0v-7h12v7a1 1 0 102 0v-7h1a1 1 0 001-1v-6a1 1 0 00-1-1zm-17 4.52v-2.52h2.52l-2.52 2.52zm1.34 1.48l4-4h3.33l-4 4h-3.33zm6.15 0l4-4h3.18l-4 4h-3.18zm8.51 0h-2.51l2.51-2.51v2.51z" fill="#393D43"/></symbol><symbol fill="none" viewBox="0 0 24 24" id="ic24-user-circle" xmlns="http://www.w3.org/2000/svg"><path d="M12 2a10 10 0 00-7.35 16.76 10.001 10.001 0 0014.7 0A10 10 0 0012 2zm0 18a8 8 0 01-5.55-2.25 6 6 0 0111.1 0A8 8 0 0112 20zm-2-10a2 2 0 114 0 2 2 0 01-4 0zm8.91 6A8 8 0 0015 12.62a4 4 0 10-6 0A8 8 0 005.09 16 7.92 7.92 0 014 12a8 8 0 1116 0 7.92 7.92 0 01-1.09 4z" fill="#393D43"/></symbol><symbol viewBox="0 0 24 24" id="ic24-warning" xmlns="http://www.w3.org/2000/svg"><path fill="#343A40" d="M12 20a8 8 0 110-16 8 8 0 010 16zm0-7c.462 0 .843-.342.869-.778l.13-3.224A.896.896 0 0013 8.946C13 8.424 12.552 8 12 8l-.055.001c-.552.03-.974.476-.943.997l.13 3.224c.025.436.406.778.868.778zm-.003 1c-.297 0-.538.095-.721.285a.992.992 0 00-.276.718.98.98 0 00.276.715c.183.188.424.282.72.282.302 0 .545-.094.728-.282a.98.98 0 00.276-.715.989.989 0 00-.276-.721c-.183-.188-.426-.282-.727-.282z"/></symbol></svg>